<?xml version="1.0" encoding="UTF-8" standalone="no"?>
<!-- Created with Inkscape (http://www.inkscape.org/) -->

<svg
   xmlns:dc="http://purl.org/dc/elements/1.1/"
   xmlns:cc="http://creativecommons.org/ns#"
   xmlns:rdf="http://www.w3.org/1999/02/22-rdf-syntax-ns#"
   xmlns:svg="http://www.w3.org/2000/svg"
   xmlns="http://www.w3.org/2000/svg"
   xmlns:sodipodi="http://sodipodi.sourceforge.net/DTD/sodipodi-0.dtd"
   xmlns:inkscape="http://www.inkscape.org/namespaces/inkscape"
   width="240mm"
   height="120mm"
   viewBox="0 0 240 120"
   version="1.1"
   id="svg8"
   inkscape:version="0.92.4 (5da689c313, 2019-01-14)"
   sodipodi:docname="adding-up-partial-sums.svg">
  <defs
     id="defs2" />
  <sodipodi:namedview
     id="base"
     pagecolor="#ffffff"
     bordercolor="#666666"
     borderopacity="1.0"
     inkscape:pageopacity="0.0"
     inkscape:pageshadow="2"
     inkscape:zoom="0.99437388"
     inkscape:cx="195.77837"
     inkscape:cy="178.69792"
     inkscape:document-units="mm"
     inkscape:current-layer="layer1"
     showgrid="false"
     showborder="true"
     width="200mm"
     showguides="true"
     inkscape:guide-bbox="true"
     inkscape:window-width="1920"
     inkscape:window-height="1080"
     inkscape:window-x="0"
     inkscape:window-y="0"
     inkscape:window-maximized="0">
    <inkscape:grid
       type="xygrid"
       id="grid815"
       units="mm"
       spacingx="10"
       spacingy="10"
       empspacing="4"
       dotted="false" />
  </sodipodi:namedview>
  <metadata
     id="metadata5">
    <rdf:RDF>
      <cc:Work
         rdf:about="">
        <dc:format>image/svg+xml</dc:format>
        <dc:type
           rdf:resource="http://purl.org/dc/dcmitype/StillImage" />
        <dc:title />
      </cc:Work>
    </rdf:RDF>
  </metadata>
  <g
     inkscape:label="Layer 1"
     inkscape:groupmode="layer"
     id="layer1"
     transform="translate(0,-177)">
    <rect
       style="opacity:1;vector-effect:none;fill:none;fill-opacity:1;fill-rule:evenodd;stroke:#000000;stroke-width:0.26458332;stroke-linecap:butt;stroke-linejoin:miter;stroke-miterlimit:4;stroke-dasharray:none;stroke-dashoffset:0;stroke-opacity:1"
       id="rect818"
       width="26.075872"
       height="21.552507"
       x="28.736677"
       y="245.6465" />
    <rect
       style="opacity:1;vector-effect:none;fill:none;fill-opacity:1;fill-rule:evenodd;stroke:#000000;stroke-width:0.26458332;stroke-linecap:butt;stroke-linejoin:miter;stroke-miterlimit:4;stroke-dasharray:none;stroke-dashoffset:0;stroke-opacity:1"
       id="rect820"
       width="25.011551"
       height="15.432658"
       x="54.546467"
       y="252.56458" />
    <rect
       style="opacity:1;vector-effect:none;fill:none;fill-opacity:1;fill-rule:evenodd;stroke:#000000;stroke-width:0.26458332;stroke-linecap:butt;stroke-linejoin:miter;stroke-miterlimit:4;stroke-dasharray:none;stroke-dashoffset:0;stroke-opacity:1"
       id="rect826"
       width="14.102257"
       height="10.377133"
       x="79.291939"
       y="258.15228" />
    <rect
       style="opacity:1;vector-effect:none;fill:none;fill-opacity:1;fill-rule:evenodd;stroke:#000000;stroke-width:0.26458332;stroke-linecap:butt;stroke-linejoin:miter;stroke-miterlimit:4;stroke-dasharray:none;stroke-dashoffset:0;stroke-opacity:1"
       id="rect834"
       width="7.1841702"
       height="3.9912195"
       x="93.394196"
       y="264.53821" />
    <path
       style="fill:none;stroke:#000000;stroke-width:0.26458332px;stroke-linecap:butt;stroke-linejoin:miter;stroke-opacity:1"
       d="m 26.874112,227.81911 c -0.298711,0.65697 -0.266078,1.19625 -0.266078,1.86257 0,0.0887 -0.03967,0.18674 0,0.26607 0.112189,0.22438 0.393007,0.32344 0.532159,0.53217 0.110011,0.16501 0.15607,0.36714 0.266081,0.53216 0.06958,0.10436 0.177387,0.17738 0.266081,0.26608 0.08869,0.0887 0.161713,0.1965 0.266078,0.26608 0.165018,0.11001 0.367147,0.15607 0.532162,0.26608 0.104365,0.0696 0.153892,0.20998 0.266081,0.26608 0.07933,0.0397 0.186751,-0.0397 0.266081,0 0.224377,0.11219 0.294169,0.45283 0.532159,0.53216 0.168285,0.0561 0.373502,-0.0793 0.532162,0 0.07933,0.0397 -0.06272,0.20336 0,0.26608 0.06271,0.0627 0.18675,-0.0397 0.266081,0 0.112188,0.0561 0.153889,0.20999 0.266078,0.26608 0.15866,0.0793 0.373501,-0.0793 0.532161,0 0.112189,0.0561 0.153893,0.20999 0.266081,0.26608 0.15866,0.0793 0.373502,-0.0793 0.532159,0 0.112192,0.0561 0.153893,0.20998 0.266081,0.26608 0.212866,0.10643 0.585378,-0.10643 0.798243,0 0.112189,0.0561 0.15389,0.20999 0.266078,0.26608 0.07933,0.0397 0.186751,-0.0397 0.266081,0 0.112189,0.0561 0.153892,0.20999 0.266081,0.26608 0.07933,0.0397 0.181938,-0.0281 0.266081,0 0.188148,0.0627 0.344014,0.20336 0.532159,0.26608 0.08414,0.028 0.186751,-0.0397 0.266081,0 0.112188,0.0561 0.153892,0.20999 0.266081,0.26608 0.15866,0.0793 0.373501,-0.0793 0.532161,0 0.112189,0.0561 0.15389,0.20999 0.266079,0.26608 0.15866,0.0793 0.373501,-0.0793 0.532161,0 0.112189,0.0561 0.15389,0.20999 0.266081,0.26608 0.07933,0.0397 0.186751,-0.0397 0.266081,0 0.112189,0.0561 0.15389,0.20999 0.266078,0.26608 0.15866,0.0793 0.373502,-0.0793 0.532162,0 0.112189,0.0561 0.15389,0.20999 0.266081,0.26608 0.07933,0.0397 0.186751,-0.0397 0.266081,0 0.112188,0.0561 0.153889,0.20999 0.266078,0.26608 0.07933,0.0397 0.181938,-0.028 0.266081,0 0.188148,0.0627 0.344014,0.20337 0.532162,0.26608 0.168283,0.0561 0.373499,-0.0793 0.532159,0 0.112191,0.0561 0.153892,0.20999 0.266081,0.26608 0.07933,0.0397 0.18675,-0.0397 0.26608,0 0.112189,0.0561 0.15389,0.20999 0.266081,0.26608 0.07933,0.0397 0.186751,-0.0397 0.266079,0 0.605639,0.60564 -0.05511,0.0703 0.532161,0.26608 1.927331,0.64245 -0.419504,-0.0767 0.79824,0.53216 0.07933,0.0397 0.186751,-0.0397 0.266081,0 0.112189,0.0561 0.153892,0.20999 0.266081,0.26608 0.07933,0.0397 0.186751,-0.0397 0.266081,0 0.224377,0.11219 0.307782,0.41998 0.532159,0.53217 0.07933,0.0397 0.186751,-0.0397 0.266081,0 0.112188,0.0561 0.177387,0.17738 0.266081,0.26608 0.08869,0.0887 0.177387,0.17738 0.266081,0.26608 0.443465,0.44346 0.886933,0.88693 1.330401,1.3304 0.207831,0.20783 0.56864,0.64517 0.79824,0.79824 0.165016,0.11001 0.367144,0.15607 0.532162,0.26608 0.104365,0.0696 0.209984,0.15389 0.266081,0.26608 0.03966,0.0793 -0.07933,0.22642 0,0.26608 0.158657,0.0793 0.363876,-0.0561 0.532159,0 0.180176,0.0601 0.594984,0.69661 0.798243,0.79824 0.07933,0.0397 0.186748,-0.0397 0.266078,0 0.22438,0.11219 0.307782,0.41997 0.532162,0.53216 0.07933,0.0397 0.18675,-0.0397 0.26608,0 0.112189,0.0561 0.15389,0.20999 0.266081,0.26608 0.07933,0.0397 0.203364,-0.0627 0.266079,0 0.06272,0.0627 -0.03966,0.18675 0,0.26608 0.05609,0.11219 0.209986,0.15389 0.26608,0.26608 0.03967,0.0793 -0.08414,0.23804 0,0.26608 0.252426,0.0841 0.532162,0 0.79824,0 0.443469,0 0.886937,0 1.330402,0 0.177387,0 0.360072,-0.043 0.532162,0 0.192402,0.0481 0.337688,0.22719 0.532162,0.26608 0.260913,0.0522 0.540104,-0.0645 0.79824,0 0.121687,0.0304 0.161716,0.19651 0.26608,0.26608 0.165016,0.11002 0.339757,0.21798 0.53216,0.26609 0.258138,0.0645 0.545816,-0.0841 0.798242,0 0.188148,0.0627 0.344014,0.20336 0.532159,0.26607 0.08414,0.028 0.181938,-0.028 0.266081,0 0.188148,0.0627 0.344014,0.20337 0.532162,0.26608 0.168283,0.0561 0.363876,-0.0561 0.532159,0 0.188148,0.0627 0.344014,0.20337 0.532162,0.26609 0.252425,0.0841 0.540104,-0.0645 0.79824,0 0.192405,0.0481 0.344014,0.20336 0.532161,0.26608 0.08414,0.028 0.181938,-0.0281 0.266081,0 0.188145,0.0627 0.339757,0.21798 0.532159,0.26608 0.344184,0.086 0.720141,-0.0861 1.064321,0 0.192405,0.0481 0.33976,0.21798 0.532162,0.26608 0.202345,0.0506 1.107588,0 1.330402,0 0.177387,0 0.360071,-0.043 0.532161,0 0.192403,0.0481 0.344012,0.20336 0.53216,0.26608 0.08414,0.028 0.177387,0 0.26608,0 0.148516,0 1.208601,-0.0406 1.330402,0 0.118994,0.0397 0.153892,0.20998 0.266081,0.26608 0.15866,0.0793 0.373502,-0.0793 0.532159,0 0.112191,0.0561 0.153892,0.20998 0.266081,0.26608 0.15866,0.0793 0.373502,-0.0793 0.532162,0 0.112188,0.0561 0.153889,0.20998 0.266081,0.26608 0.158657,0.0793 0.373499,-0.0793 0.532159,0 0.112188,0.0561 0.153892,0.20998 0.266081,0.26608 0.07933,0.0397 0.18675,-0.0397 0.26608,0 0.112189,0.0561 0.15389,0.20998 0.266081,0.26608 0.158658,0.0793 0.373499,-0.0793 0.532159,0 0.112189,0.0561 0.153893,0.20998 0.266081,0.26608 0.15866,0.0793 0.373502,-0.0793 0.532162,0 0.224377,0.11219 0.307782,0.41997 0.532159,0.53216 0.07933,0.0397 0.186751,-0.0397 0.266081,0 0.112189,0.0561 0.15389,0.20998 0.266081,0.26608 0.07933,0.0397 0.177387,0 0.266081,0 0.177384,0.0887 0.367143,0.15607 0.532159,0.26608 0.104365,0.0696 0.147087,0.22641 0.266081,0.26608 0.168283,0.0561 0.363876,-0.0561 0.532159,0 0.23799,0.0793 0.307784,0.41997 0.532162,0.53216 0.07933,0.0397 0.18675,-0.0397 0.26608,0 0.224378,0.11219 0.307782,0.41997 0.532159,0.53216 0.07933,0.0397 0.186751,-0.0397 0.266081,0 0.112192,0.0561 0.153893,0.20999 0.266081,0.26608 0.07933,0.0397 0.186751,-0.0397 0.266081,0 0.112189,0.0561 0.15389,0.20999 0.266081,0.26608 0.07933,0.0397 0.186751,-0.0397 0.266078,0 0.319297,0.15965 0.478946,0.6386 0.798243,0.79824 0.07933,0.0397 0.186751,-0.0397 0.266081,0 0.112188,0.0561 0.153889,0.20999 0.266078,0.26608 0.07933,0.0397 0.203367,-0.0627 0.266081,0 0.06272,0.0627 -0.06271,0.20337 0,0.26608 0.06272,0.0627 0.203364,-0.0627 0.266081,0 0.06272,0.0627 -0.06272,0.20337 0,0.26608 0.0728,0.0728 0.919974,-0.0722 1.06432,0 0.112189,0.0561 0.161716,0.19651 0.266081,0.26608 0.165016,0.11001 0.373502,0.14709 0.532162,0.26608 0.200689,0.15052 0.323429,0.39301 0.532159,0.53217 0.0738,0.0492 0.177387,0 0.266081,0 0.177387,0.0887 0.367144,0.15607 0.532162,0.26607 0.242215,0.16148 0.562403,0.68033 0.79824,0.79825 0.07933,0.0397 0.186751,-0.0397 0.266081,0 0.112188,0.0561 0.153889,0.20998 0.266081,0.26608 0.07933,0.0397 0.186748,-0.0397 0.266078,0 0.22438,0.11219 0.294171,0.45283 0.532161,0.53216 0.168283,0.0561 0.363877,-0.0561 0.53216,0 0.118996,0.0397 0.153892,0.20998 0.26608,0.26608 0.07933,0.0397 0.186751,-0.0397 0.266081,0 0.112189,0.0561 0.147085,0.22641 0.266081,0.26608 1.211273,0 0.01521,-0.12543 0.79824,0.26608 0.07933,0.0397 0.177387,0 0.266081,0 0.177387,0 0.363876,-0.0561 0.532162,0 0.118993,0.0397 0.147084,0.22641 0.266078,0.26608 0.168286,0.0561 0.363879,-0.0561 0.532162,0 0.118993,0.0397 0.147084,0.22642 0.266081,0.26608 0.246499,0.0822 1.075441,-0.085 1.330401,0 0.188148,0.0627 0.339757,0.21798 0.532159,0.26608 0.216379,0.0541 1.31794,0 1.596483,0 0.08869,0 0.181938,-0.0281 0.266081,0 0.188148,0.0627 0.344014,0.20336 0.532162,0.26608 0.282739,0.0942 0.781579,-0.0942 1.06432,0 0.188146,0.0627 0.344014,0.20336 0.53216,0.26608 0.252425,0.0841 0.540107,-0.0645 0.798242,0 0.192403,0.0481 0.344014,0.20337 0.532159,0.26608 0.282742,0.0943 0.781582,-0.0942 1.064321,0 0.917236,0.30575 0.197104,0.26608 0.798243,0.26608 0.139139,0 0.994357,-0.035 1.064321,0 0.112188,0.0561 0.153892,0.20999 0.26608,0.26608 0.105498,0.0528 0.743845,-0.0544 0.79824,0 0.06272,0.0627 -0.06271,0.20337 0,0.26608 0.133041,0.13304 0.665203,-0.13304 0.798243,0 0.06271,0.0627 -0.06272,0.20337 0,0.26608 0.06403,0.064 1.000296,-0.064 1.064316,0 0.0627,0.0627 -0.0627,0.20337 0,0.26608 0.13305,0.13304 0.6652,-0.13304 0.79824,0 0.0627,0.0627 -0.0627,0.20337 0,0.26608 0.12544,0.12543 0.37351,-0.0793 0.53217,0 0.11219,0.0561 0.15389,0.20999 0.26608,0.26608 0.15865,0.0793 0.40673,-0.12543 0.53216,0 0.0627,0.0627 -0.0627,0.20337 0,0.26608 0.0627,0.0627 0.18675,-0.0397 0.26608,0 0.11219,0.0561 0.15389,0.20999 0.26608,0.26608 0.15866,0.0793 0.3735,-0.0793 0.53216,0 0.22438,0.11219 0.30778,0.41998 0.53216,0.53216 0.0793,0.0397 0.17739,0 0.26608,0 0.17739,0 0.36388,-0.0561 0.53216,0 0.119,0.0397 0.15389,0.20999 0.26608,0.26608 0.0793,0.0397 0.18675,-0.0397 0.26608,0 0.11219,0.0561 0.14709,0.22642 0.26608,0.26609 0.16828,0.0561 0.35477,0 0.53216,0 0.0887,0 0.18675,-0.0397 0.26608,0 0.11219,0.0561 0.15389,0.20998 0.26608,0.26608 0.0793,0.0397 0.18194,-0.0281 0.26608,0 0.18815,0.0627 0.34402,0.20336 0.53216,0.26607 0.0842,0.028 0.18194,-0.028 0.26608,0 0.18815,0.0627 0.33976,0.21798 0.53217,0.26609 0.34418,0.086 0.72014,-0.0861 1.06432,0 0.1924,0.0481 0.34401,0.20336 0.53216,0.26608 0.25242,0.0841 0.54581,-0.0841 0.79824,0 0.11899,0.0397 0.15389,0.20998 0.26608,0.26608 0.16786,0.0839 1.16254,-0.0839 1.3304,0 0.11219,0.0561 0.15389,0.20998 0.26608,0.26608 0.17634,0.0882 0.84131,-0.0743 1.06432,0 0.18815,0.0627 0.33976,0.21798 0.53216,0.26608 0.34985,0.0875 0.99995,-0.11015 1.3304,0 0.119,0.0397 0.1539,0.20998 0.26608,0.26608 0.17634,0.0882 0.84132,-0.0743 1.06432,0 0.18815,0.0627 0.34402,0.20336 0.53217,0.26608 0.0841,0.028 0.17738,0 0.26607,0 0.25061,0 1.17904,-0.0505 1.33041,0 0.11899,0.0397 0.15389,0.20998 0.26608,0.26608 0.0793,0.0397 0.17738,0 0.26608,0 0.17739,0 0.35477,0 0.53216,0 0.44347,0 0.88693,0 1.3304,0 1.68517,0 3.37035,0 5.05553,0 5.49899,0 10.99798,0 16.49698,0"
       id="path836"
       inkscape:connector-curvature="0" />
  </g>
</svg>
