<?xml version="1.0" encoding="UTF-8" standalone="no"?>
<!-- Created with Inkscape (http://www.inkscape.org/) -->

<svg
   xmlns:dc="http://purl.org/dc/elements/1.1/"
   xmlns:cc="http://creativecommons.org/ns#"
   xmlns:rdf="http://www.w3.org/1999/02/22-rdf-syntax-ns#"
   xmlns:svg="http://www.w3.org/2000/svg"
   xmlns="http://www.w3.org/2000/svg"
   xmlns:sodipodi="http://sodipodi.sourceforge.net/DTD/sodipodi-0.dtd"
   xmlns:inkscape="http://www.inkscape.org/namespaces/inkscape"
   width="240mm"
   height="120mm"
   viewBox="0 0 240 120"
   version="1.1"
   id="svg8"
   inkscape:version="0.92.4 (5da689c313, 2019-01-14)"
   sodipodi:docname="fig_1.svg">
  <defs
     id="defs2" />
  <sodipodi:namedview
     id="base"
     pagecolor="#ffffff"
     bordercolor="#666666"
     borderopacity="1.0"
     inkscape:pageopacity="0.0"
     inkscape:pageshadow="2"
     inkscape:zoom="1"
     inkscape:cx="169.09703"
     inkscape:cy="102.26791"
     inkscape:document-units="mm"
     inkscape:current-layer="layer1"
     showgrid="false"
     showborder="true"
     width="200mm"
     showguides="true"
     inkscape:guide-bbox="true"
     inkscape:window-width="628"
     inkscape:window-height="1020"
     inkscape:window-x="646"
     inkscape:window-y="12"
     inkscape:window-maximized="0">
    <inkscape:grid
       type="xygrid"
       id="grid815"
       units="mm"
       spacingx="10"
       spacingy="10"
       empspacing="4"
       dotted="false" />
  </sodipodi:namedview>
  <metadata
     id="metadata5">
    <rdf:RDF>
      <cc:Work
         rdf:about="">
        <dc:format>image/svg+xml</dc:format>
        <dc:type
           rdf:resource="http://purl.org/dc/dcmitype/StillImage" />
        <dc:title />
      </cc:Work>
    </rdf:RDF>
  </metadata>
  <g
     inkscape:label="Layer 1"
     inkscape:groupmode="layer"
     id="layer1"
     transform="translate(0,-177)">
    <text
       xml:space="preserve"
       style="font-style:normal;font-weight:normal;font-size:10.58333302px;line-height:1.25;font-family:sans-serif;letter-spacing:0px;word-spacing:0px;fill:#000000;fill-opacity:1;stroke:none;stroke-width:0.26458332"
       x="40.178131"
       y="212.65254"
       id="text10"><tspan
         sodipodi:role="line"
         id="tspan8"
         x="40.178131"
         y="212.65254"
         style="stroke-width:0.26458332">2 2 2 2 2 2</tspan></text>
    <path
       style="fill:none;stroke:#000000;stroke-width:0.26458332px;stroke-linecap:butt;stroke-linejoin:miter;stroke-opacity:1"
       d="m 38.049488,216.37766 c 2.306029,0 4.612058,0 6.918087,0 0.443468,0 0.886936,0 1.330401,0 0.532162,0 1.066964,-0.0529 1.596483,0 0.363879,0.0364 0.700865,0.22569 1.064321,0.26608 0.440756,0.049 0.886936,0 1.330402,0 0.532161,0 1.06432,0 1.596482,0 1.951257,0 3.902512,0 5.853769,0 0.620852,0 1.241708,0 1.862561,0 0.06323,0 1.004683,-0.0298 1.06432,0 0.112192,0.0561 0.147088,0.22641 0.266081,0.26608 0.137078,0.0457 1.581097,0 1.862564,0 0.177387,0 0.354772,0 0.532159,0 0.08869,0 0.186751,-0.0397 0.266081,0 0.112188,0.0561 0.147084,0.22642 0.266081,0.26608 0.143047,0.0477 0.839044,0 1.06432,0 0.443469,0 0.886934,0 1.330402,0 0.08869,0 0.203364,-0.0627 0.266081,0 0.06271,0.0627 -0.06272,0.20336 0,0.26608 0.06271,0.0627 0.177387,0 0.266081,0 0.177384,0 0.354772,0 0.532159,0 0.620855,0 1.241708,0 1.862563,0 0.177388,0 0.354772,0 0.532159,0 0.177388,0 0.360072,-0.043 0.532162,0 0.192403,0.0481 0.339757,0.21798 0.532162,0.26608 0.202343,0.0506 1.107588,0 1.330402,0 0.709546,0 1.419092,0 2.128641,0 0.177388,0 0.354775,0 0.532159,0 0.177388,0 0.360072,-0.043 0.532162,0 0.192403,0.0481 0.339757,0.21798 0.532162,0.26608 0.27563,0.0689 0.759217,0 1.064321,0 0.620853,0 1.241708,0 1.862561,0 1.951257,0 3.902511,0 5.853768,0 2.57211,0 5.14422,0 7.71633,0 0.79824,0 1.596482,0 2.394722,0 0.139139,0 0.994357,0.035 1.064321,0 0.112191,-0.0561 0.147087,-0.22642 0.266081,-0.26608 0.252426,-0.0841 0.545814,0.0841 0.79824,0 0.188148,-0.0627 0.339759,-0.21798 0.532162,-0.26608 0.202345,-0.0506 1.107588,0 1.330401,0 0.08869,0 0.181938,0.0281 0.266081,0 0.188148,-0.0627 0.344014,-0.20336 0.532159,-0.26608 0.282742,-0.0943 0.781578,0.0942 1.064328,0 0.18814,-0.0627 0.34401,-0.20336 0.53215,-0.26608 0.21417,-0.0714 0.8943,0.085 1.06433,0 0.11219,-0.0561 0.15389,-0.20999 0.26608,-0.26608 0.21286,-0.10643 0.58537,0.10643 0.79824,0 0.11219,-0.0561 0.15389,-0.20999 0.26608,-0.26608 0.0688,-0.0344 1.40788,0 1.59648,0"
       id="path12"
       inkscape:connector-curvature="0" />
    <text
       xml:space="preserve"
       style="font-style:normal;font-weight:normal;font-size:10.58333302px;line-height:1.25;font-family:sans-serif;letter-spacing:0px;word-spacing:0px;fill:#000000;fill-opacity:1;stroke:none;stroke-width:0.26458332"
       x="39.912048"
       y="226.75479"
       id="text16"><tspan
         sodipodi:role="line"
         id="tspan14"
         x="39.912048"
         y="226.75479"
         style="stroke-width:0.26458332">n </tspan></text>
    <text
       xml:space="preserve"
       style="font-style:normal;font-weight:normal;font-size:10.58333302px;line-height:1.25;font-family:sans-serif;letter-spacing:0px;word-spacing:0px;fill:#000000;fill-opacity:1;stroke:none;stroke-width:0.26458332"
       x="90.733391"
       y="229.94775"
       id="text20"><tspan
         sodipodi:role="line"
         id="tspan18"
         x="90.733391"
         y="229.94775"
         style="stroke-width:0.26458332">1</tspan></text>
    <text
       xml:space="preserve"
       style="font-style:normal;font-weight:normal;font-size:10.58333302px;line-height:1.25;font-family:sans-serif;letter-spacing:0px;word-spacing:0px;fill:#000000;fill-opacity:1;stroke:none;stroke-width:0.26458332"
       x="81.154503"
       y="229.68169"
       id="text24"><tspan
         sodipodi:role="line"
         id="tspan22"
         x="81.154503"
         y="229.68169"
         style="stroke-width:0.26458332">2</tspan></text>
    <path
       style="fill:none;stroke:#000000;stroke-width:0.26458332px;stroke-linecap:butt;stroke-linejoin:miter;stroke-opacity:1"
       d="m 90.467311,202.2754 c 0.07609,1.25431 -1.016823,-0.31358 -1.330402,0 -0.06271,0.0627 0.06272,0.20337 0,0.26608 -0.06271,0.0627 -0.203364,-0.0627 -0.266078,0 -0.01071,0.0107 0,0.96661 0,1.06432 0,3.10427 0,6.20854 0,9.31281 0,3.45905 0,6.91809 0,10.37714 0,1.77387 0,3.54774 0,5.3216 0,0.53216 0,1.06433 0,1.59649 0,0.0887 0,0.17738 0,0.26608 0,0.0887 -0.03967,0.18675 0,0.26608 0.05609,0.11219 0.226415,0.14708 0.266078,0.26608 0.0561,0.16828 0,0.35477 0,0.53216 0,0.0887 -0.03966,0.18675 0,0.26608 0.0561,0.11219 0.226418,0.14708 0.266081,0.26608 0.04057,0.1217 -0.0592,0.94592 0,1.06432 0.05609,0.11219 0.209987,0.15389 0.266081,0.26608 0.07933,0.15866 -0.07933,0.3735 0,0.53216 0.05609,0.11219 0.209987,0.15389 0.266081,0.26608 0.03966,0.0793 -0.06272,0.20336 0,0.26608 0.125431,0.12543 0.373502,-0.0793 0.532159,0 0.112191,0.0561 0.161716,0.1965 0.266081,0.26608 0.165015,0.11001 0.354775,0.17739 0.532162,0.26608 0.177387,0.0887 0.339757,0.21798 0.532159,0.26608 0.344183,0.0861 0.72014,-0.086 1.064323,0 0.192403,0.0481 0.339757,0.21798 0.532159,0.26608 0.172091,0.043 0.354775,0 0.532162,0 0.177387,0 0.354772,0 0.532159,0 0.97563,0 1.951257,0 2.926885,0 0.620855,0 1.241708,0 1.862563,0 0.11983,0 0.717262,0.0405 0.798236,0 0.0707,-0.0353 0.76292,-0.72759 0.79824,-0.79824 0.0397,-0.0793 -0.0397,-0.18675 0,-0.26608 0.1122,-0.22438 0.41998,-0.30778 0.53217,-0.53216 0.0397,-0.0793 0,-0.17739 0,-0.26608 0,-0.0887 0,-0.17739 0,-0.26608 0,-0.53216 0,-1.06432 0,-1.59648 0,-1.86257 0,-3.72513 0,-5.58769 0,-6.38593 0,-12.77186 0,-19.15778 0,-1.59649 0,-3.19297 0,-4.78945 0,-0.0645 0.009,-0.78968 0,-0.79824 -0.0627,-0.0627 -0.18676,0.0397 -0.26609,0 -0.11218,-0.0561 -0.14708,-0.22642 -0.26608,-0.26608 -0.25242,-0.0841 -0.54581,0.0841 -0.79824,0 -0.188144,-0.0627 -0.34401,-0.20336 -0.532158,-0.26608 -0.252425,-0.0841 -0.545814,0.0841 -0.79824,0 -0.118993,-0.0397 -0.147084,-0.22642 -0.266081,-0.26608 -0.399118,-0.13304 -0.93128,0.13304 -1.330401,0 -0.118994,-0.0397 -0.15389,-0.20999 -0.266081,-0.26608 -0.06996,-0.035 -0.925182,0 -1.064321,0 -0.79824,0 -1.59648,0 -2.394723,0 -0.125454,0 -1.318342,-0.0121 -1.330401,0 -0.06271,0.0627 0.03967,0.18675 0,0.26608 -0.05609,0.11219 -0.209987,0.15389 -0.266081,0.26608 -0.03966,0.0793 0.06272,0.20336 0,0.26608 -0.06271,0.0627 -0.203364,-0.0627 -0.266078,0 -0.06272,0.0627 0,0.17739 0,0.26608 -0.354775,0.26608 -0.709549,0.53216 -1.064324,0.79824 z"
       id="path26"
       inkscape:connector-curvature="0" />
    <path
       style="fill:none;stroke:#000000;stroke-width:0.26458332px;stroke-linecap:butt;stroke-linejoin:miter;stroke-opacity:1"
       d="m 80.090178,203.6058 c -0.177384,0.44347 -0.400944,0.87115 -0.532159,1.33041 -0.05911,0.20687 0,1.3216 0,1.59648 0,1.3304 0,2.6608 0,3.9912 0,3.72512 0,7.45025 0,11.17538 0,2.6608 0,5.3216 0,7.98241 0,0.0977 -0.01072,1.05361 0,1.06432 0.06271,0.0627 0.203364,-0.0627 0.266081,0 0.06271,0.0627 -0.03967,0.18675 0,0.26608 0.05609,0.11219 0.209984,0.15389 0.266078,0.26608 0.03967,0.0793 -0.03966,0.18675 0,0.26608 0.05609,0.11219 0.209987,0.15389 0.266081,0.26608 0.03967,0.0793 -0.03966,0.18675 0,0.26608 0.112189,0.22438 0.419971,0.30778 0.532162,0.53216 0.03966,0.0793 -0.06272,0.20336 0,0.26608 0.06271,0.0627 0.203364,-0.0627 0.266081,0 0.06271,0.0627 -0.06272,0.20336 0,0.26608 0.06271,0.0627 0.203364,-0.0627 0.266078,0 0.06272,0.0627 -0.06271,0.20336 0,0.26608 0.06272,0.0627 0.203367,-0.0627 0.266081,0 0.06272,0.0627 0,0.17739 0,0.26608 0.08869,0 0.186751,-0.0397 0.266081,0 0.112188,0.0561 0.153889,0.20999 0.266081,0.26608 0.07933,0.0397 0.186751,-0.0397 0.266081,0 0.112188,0.0561 0.153889,0.20999 0.266078,0.26608 0.09622,0.0481 1.145333,0 1.330401,0 0.886937,0 1.77387,0 2.660804,0 0.125457,0 1.318342,0.0121 1.330402,0 0.06272,-0.0627 0,-0.17739 0,-0.26608 0,-0.0887 0,-0.17739 0,-0.26608 0,-0.97563 0,-1.95126 0,-2.92688 0,-8.51457 0,-17.02914 0,-25.54372 0,-1.68517 0,-3.37035 0,-5.05552 0,-0.0645 0.0085,-0.78969 0,-0.79824 -0.06271,-0.0627 -0.186751,0.0397 -0.266081,0 -0.112189,-0.0561 -0.15389,-0.20999 -0.266078,-0.26608 -0.158661,-0.0793 -0.373502,0.0793 -0.532162,0 -0.112189,-0.0561 -0.15389,-0.20999 -0.266081,-0.26608 -0.06996,-0.035 -0.925182,0 -1.064321,0 -0.709546,0 -1.419095,0 -2.128642,0 -0.139139,0 -0.994359,-0.035 -1.06432,0 -0.58832,0.29416 -0.08257,0.16514 -0.266081,0.53216 -0.05609,0.11219 -0.209987,0.15389 -0.266081,0.26608 -0.03967,0.0793 0.03966,0.18675 0,0.26608 -0.553681,1.10736 0.01836,-0.28445 -0.532162,0.26608 -0.06271,0.0627 0.03967,0.18675 0,0.26608 -0.05609,0.11219 -0.209984,0.15389 -0.266078,0.26608 -0.03967,0.0793 0.03966,0.18675 0,0.26608 -0.553683,1.10736 0.01836,-0.28445 -0.532162,0.26608 -0.06272,0.0627 0.03966,0.18675 0,0.26608 -0.05609,0.11219 -0.209986,0.15389 -0.266081,0.26608 -0.03966,0.0793 0.06272,0.20336 0,0.26608 -0.06271,0.0627 -0.203364,-0.0627 -0.266081,0 -0.125431,0.12543 0.125434,0.40673 0,0.53216 -0.06271,0.0627 -0.177384,0 -0.266078,0 0.08869,0.35478 0.177385,0.70955 0.266078,1.06432 z"
       id="path28"
       inkscape:connector-curvature="0" />
    <text
       xml:space="preserve"
       style="font-style:normal;font-weight:normal;font-size:10.58333302px;line-height:1.25;font-family:sans-serif;letter-spacing:0px;word-spacing:0px;fill:#000000;fill-opacity:1;stroke:none;stroke-width:0.26458332"
       x="35.122604"
       y="188.70531"
       id="text32"><tspan
         sodipodi:role="line"
         id="tspan30"
         x="35.122604"
         y="188.70531"
         style="stroke-width:0.26458332">2 * 1 * 1 * 1...</tspan></text>
    <path
       style="fill:none;stroke:#000000;stroke-width:0.26458332px;stroke-linecap:butt;stroke-linejoin:miter;stroke-opacity:1"
       d="m 36.453005,202.80756 c -0.266081,0.35478 -0.599916,0.66767 -0.79824,1.06432 -0.07933,0.15866 0,0.35478 0,0.53216 0,0.26608 0,0.53217 0,0.79824 0,0.62086 0,1.24171 0,1.86257 0,2.48341 0,4.96683 0,7.45025 0,1.3304 0,2.6608 0,3.9912 0,0.1886 -0.0344,1.52769 0,1.59648 0.05609,0.11219 0.209984,0.15389 0.266079,0.26608 0.03967,0.0793 -0.03966,0.18676 0,0.26608 0.05609,0.11219 0.226417,0.14709 0.26608,0.26608 0.05609,0.16829 -0.05609,0.36388 0,0.53217 0.03967,0.11899 0.209987,0.15388 0.266081,0.26608 0.03966,0.0793 -0.03967,0.18675 0,0.26607 0.05609,0.1122 0.209987,0.1539 0.266081,0.26609 0.03966,0.0793 -0.03967,0.18675 0,0.26608 0.0561,0.11218 0.209984,0.15389 0.266081,0.26608 0.03966,0.0793 -0.03967,0.18675 0,0.26608 0.05609,0.11219 0.209984,0.15389 0.266078,0.26608 0.03967,0.0793 -0.03966,0.18675 0,0.26608 0.0561,0.11219 0.209987,0.15389 0.266081,0.26608 0.07933,0.15866 -0.07933,0.3735 0,0.53216 0.05609,0.11219 0.209987,0.15389 0.266081,0.26608 0.07933,0.15866 -0.07933,0.3735 0,0.53216 0.55368,1.10736 -0.01836,-0.28445 0.532162,0.26608 0.06271,0.0627 -0.03967,0.18675 0,0.26608 0.05609,0.11219 0.209984,0.15389 0.266078,0.26608 0.03967,0.0793 -0.03966,0.18675 0,0.26608 0.05609,0.11219 0.209987,0.15389 0.266081,0.26608 0.03967,0.0793 -0.03966,0.18675 0,0.26608 0.06161,0.12322 0.907828,0.90783 1.064321,1.06432 0.156493,0.1565 0.941107,1.00272 1.064321,1.06432 0.07933,0.0397 0.18675,-0.0397 0.26608,0 1.107364,0.55369 -0.284448,-0.0184 0.266081,0.53217 0.06272,0.0627 0.186751,-0.0397 0.266081,0 0.224377,0.11218 0.307782,0.41997 0.532159,0.53215 0.07933,0.0397 0.203367,-0.0627 0.266081,0 0.06272,0.0627 -0.06271,0.20337 0,0.26609 0.06272,0.0627 0.186751,-0.0397 0.266081,0 0.112189,0.0561 0.153892,0.20998 0.266081,0.26608 0.07933,0.0397 0.203364,-0.0627 0.266081,0 0.06271,0.0627 -0.06272,0.20336 0,0.26608 0.06271,0.0627 0.177384,0 0.266078,0 0.08869,0 0.177387,0 0.266081,0 0.798242,0 1.596482,0 2.394722,0 0.08869,0 0.177388,0 0.266081,0 0.08869,0 0.203364,0.0627 0.266081,0 0.06272,-0.0627 0,-0.17739 0,-0.26608 0,-0.17739 0,-0.35478 0,-0.53217 0,-1.2417 0,-2.48341 0,-3.72512 0,-4.87814 0,-9.75628 0,-14.63442 0,-1.06432 0,-2.12864 0,-3.19296 0,-0.31056 0.0519,-1.38889 0,-1.59648 -0.0481,-0.19241 -0.203364,-0.34402 -0.266081,-0.53216 -0.02805,-0.0841 0,-0.17739 0,-0.26608 0,-0.19023 0.0454,-1.46028 0,-1.59649 -0.03966,-0.11899 -0.226414,-0.14708 -0.266081,-0.26608 -0.08202,-0.24606 0.08765,-1.42118 0,-1.59648 -0.05609,-0.11219 -0.209983,-0.15389 -0.266078,-0.26608 -0.07035,-0.1407 0.03241,-0.93469 0,-1.06432 -0.0481,-0.1924 -0.217979,-0.33976 -0.266081,-0.53216 -0.08746,-0.34985 0.110152,-0.99994 0,-1.3304 -0.03967,-0.119 -0.226417,-0.14709 -0.266081,-0.26608 -0.06034,-0.18102 0.07054,-1.18932 0,-1.3304 -0.05609,-0.11219 -0.209986,-0.1539 -0.26608,-0.26608 -0.03966,-0.0793 0.03967,-0.18676 0,-0.26609 -0.0561,-0.11218 -0.209984,-0.15389 -0.266081,-0.26608 -0.03966,-0.0793 0.06272,-0.20336 0,-0.26608 -0.06271,-0.0627 -0.203364,0.0627 -0.266079,0 -0.06272,-0.0627 0.06272,-0.20336 0,-0.26608 -0.06272,-0.0627 -0.177387,0 -0.26608,0 -0.443469,0 -0.886937,0 -1.330402,0 -0.443468,0 -0.886934,0 -1.330402,0 -0.177387,0 -0.363876,-0.0561 -0.532162,0 -0.276965,0.0923 -0.624276,0.27122 -0.79824,0.53216 -0.110011,0.16502 -0.156069,0.36715 -0.26608,0.53217 -0.139153,0.20873 -0.419971,0.30778 -0.532162,0.53216 -0.03966,0.0793 0.03967,0.18675 0,0.26608 -0.55368,1.10736 0.01836,-0.28445 -0.532159,0.26608 -0.06272,0.0627 0.03966,0.18675 0,0.26608 -0.112189,0.22438 -0.419971,0.30778 -0.532162,0.53216 -0.03966,0.0793 0.06272,0.20336 0,0.26608 -0.06271,0.0627 -0.203364,-0.0627 -0.266078,0 -0.06272,0.0627 0.03966,0.18675 0,0.26608 -0.0561,0.11219 -0.209987,0.15389 -0.266081,0.26608 -0.03967,0.0793 0.06271,0.20336 0,0.26608 -0.06272,0.0627 -0.203364,-0.0627 -0.266081,0 -0.06272,0.0627 0.03966,0.18675 0,0.26608 -0.05609,0.11219 -0.209987,0.15389 -0.266081,0.26608 -0.03966,0.0793 0.03967,0.18675 0,0.26608 -0.05609,0.11219 -0.209986,0.15389 -0.266081,0.26608 -0.03966,0.0793 0,0.17739 0,0.26608 -0.266078,0.35477 -0.532159,0.70955 -0.79824,1.06432 z"
       id="path21"
       inkscape:connector-curvature="0" />
    <path
       style="fill:none;stroke:#000000;stroke-width:0.26458332px;stroke-linecap:butt;stroke-linejoin:miter;stroke-opacity:1"
       d="m 49.757022,242.45353 c 0.622933,-0.99966 -0.634698,-0.83977 -0.798242,-1.3304 -0.05609,-0.16829 0.05609,-0.36388 0,-0.53216 -0.03966,-0.119 -0.209984,-0.15389 -0.266078,-0.26608 -0.03967,-0.0793 0.06271,-0.20337 0,-0.26608 -0.06272,-0.0627 -0.203367,0.0627 -0.266081,0 -0.125431,-0.12543 0.125431,-0.40673 0,-0.53216 -0.06272,-0.0627 -0.203364,0.0627 -0.266081,0 -0.06272,-0.0627 0.06272,-0.20337 0,-0.26608 -0.06272,-0.0627 -0.203364,0.0627 -0.266081,0 -0.125431,-0.12543 0.125431,-0.40673 0,-0.53216 -0.06271,-0.0627 -0.203364,0.0627 -0.266081,0 -0.06271,-0.0627 0.03967,-0.18675 0,-0.26608 -0.05609,-0.11219 -0.209984,-0.1539 -0.266078,-0.26608 -0.03967,-0.0793 0.03966,-0.18676 0,-0.26609 -0.0561,-0.11218 -0.209987,-0.15388 -0.266081,-0.26608 -0.03967,-0.0793 0.06271,-0.20336 0,-0.26607 -0.06272,-0.0627 -0.203364,0.0627 -0.266081,0 -0.125431,-0.12544 0.125431,-0.40674 0,-0.53217 -0.06272,-0.0627 -0.203364,0.0627 -0.266081,0 -0.125431,-0.12543 0.125431,-0.40672 0,-0.53216 -0.06271,-0.0627 -0.203364,0.0627 -0.266081,0 -0.06271,-0.0627 0,-0.17738 0,-0.26608 0,-0.70954 0,-1.41909 0,-2.12864"
       id="path23"
       inkscape:connector-curvature="0" />
    <path
       style="fill:none;stroke:#000000;stroke-width:0.26458332px;stroke-linecap:butt;stroke-linejoin:miter;stroke-opacity:1"
       d="m 43.371095,238.72841 c -0.177387,-0.35478 -0.38485,-0.69604 -0.532162,-1.06433 -0.03659,-0.0915 0,-1.47447 0,-1.59648 0,-0.79824 0,-1.59648 0,-2.39472 0,-0.17739 0,-0.35477 0,-0.53216 0,-0.17739 -0.05609,-0.36388 0,-0.53216 0.03966,-0.119 0.196503,-0.16172 0.266081,-0.26608 0.110011,-0.16502 0.15607,-0.36715 0.266081,-0.53216 0.06958,-0.10437 0.209984,-0.15389 0.266078,-0.26608 0.18351,-0.36702 -0.322236,-0.238 0.266081,-0.53216 0.08098,-0.0405 0.67841,0 0.798242,0 0.08869,0 0.203365,-0.0627 0.266079,0 0.140237,0.14023 0.177387,0.35477 0.266081,0.53216 0.177387,0.35477 0.354774,0.70955 0.532161,1.06432 0.08869,0.17739 0.147085,0.3735 0.266081,0.53216 0.150516,0.20069 0.381643,0.33147 0.532159,0.53216 0.118997,0.15866 0.15607,0.36715 0.266081,0.53216 0.06958,0.10437 0.177387,0.17739 0.266081,0.26608 0.354772,0.35478 0.709546,0.70955 1.064321,1.06432 0.882478,0.88248 -0.125431,-0.25086 0.266081,0.53216 0.112188,0.22438 0.41997,0.30779 0.532159,0.53216 0.03967,0.0793 -0.06271,0.20337 0,0.26608 0.06272,0.0627 0.203367,-0.0627 0.266081,0 0.06272,0.0627 -0.06271,0.20337 0,0.26608 0.06272,0.0627 0.203364,-0.0627 0.266081,0 0.06271,0.0627 0.06272,0.3288 0,0.26609 -1.109557,-1.10956 -2.128645,-2.30604 -3.192966,-3.45905"
       id="path25"
       inkscape:connector-curvature="0" />
    <text
       xml:space="preserve"
       style="font-style:normal;font-weight:normal;font-size:10.58333302px;line-height:1.25;font-family:sans-serif;letter-spacing:0px;word-spacing:0px;fill:#000000;fill-opacity:1;stroke:none;stroke-width:0.26458332"
       x="29.268837"
       y="254.69324"
       id="text29"><tspan
         sodipodi:role="line"
         id="tspan27"
         x="29.268837"
         y="254.69324"
         style="stroke-width:0.26458332">This is just 2/n</tspan></text>
  </g>
</svg>
